<svg width="23" height="23" viewBox="0 0 23 23" fill="none" xmlns="http://www.w3.org/2000/svg">
<g clip-path="url(#clip0_157_5468)">
<mask id="mask0_157_5468" style="mask-type:luminance" maskUnits="userSpaceOnUse" x="0" y="0" width="23" height="23">
<path d="M22.7138 0.195312H0.888672V22.1568H22.7138V0.195312Z" fill="white"/>
</mask>
<g mask="url(#mask0_157_5468)">
<mask id="mask1_157_5468" style="mask-type:luminance" maskUnits="userSpaceOnUse" x="0" y="0" width="23" height="23">
<path d="M22.8447 0.15625H0.844727V22.1562H22.8447V0.15625Z" fill="white"/>
</mask>
<g mask="url(#mask1_157_5468)">
<path d="M14.1106 1.80681C12.2412 1.80681 10.4867 2.53831 9.16397 3.86931C6.43652 6.61381 6.43652 11.0798 9.16397 13.8243C10.4867 15.1553 12.2412 15.8868 14.1106 15.8868C15.9799 15.8868 17.7344 15.1553 19.0571 13.8243C20.3799 12.4933 21.1068 10.7278 21.1068 8.84681C21.1068 6.96581 20.3799 5.20031 19.0571 3.86931C17.7344 2.53831 15.9799 1.80681 14.1106 1.80681ZM14.1106 17.4983C11.8149 17.4983 9.6559 16.5963 8.02708 14.9628C4.67652 11.5913 4.67652 6.09681 8.02708 2.72531C9.6559 1.09181 11.8149 0.195312 14.1106 0.195312C16.4062 0.195312 18.5652 1.09731 20.1886 2.73081C21.8119 4.36431 22.7083 6.53681 22.7083 8.85231C22.7083 11.1678 21.8119 13.3348 20.1886 14.9683C18.5652 16.6018 16.4062 17.5038 14.1106 17.5038" fill="white"/>
<path d="M18.8656 9.65627C18.4229 9.65627 18.0621 9.29327 18.0621 8.84777C18.0621 6.65877 16.2912 4.87677 14.1158 4.87677C11.9404 4.87677 10.1695 6.65877 10.1695 8.84777C10.1695 9.29327 9.80871 9.65627 9.36598 9.65627C8.92325 9.65627 8.5625 9.29327 8.5625 8.84777C8.5625 5.76777 11.0549 3.25977 14.1158 3.25977C17.1767 3.25977 19.6691 5.76777 19.6691 8.84777C19.6691 9.29327 19.3083 9.65627 18.8656 9.65627Z" fill="white"/>
<path d="M3.65985 22.1559C2.96022 22.1559 2.26606 21.8864 1.73588 21.3529L1.68122 21.2979C1.16743 20.7809 0.888672 20.0934 0.888672 19.3619C0.888672 18.6304 1.1729 17.9429 1.68122 17.4259L5.25588 13.8289C5.56743 13.5154 6.07575 13.5154 6.39277 13.8289C6.70432 14.1424 6.70432 14.6539 6.39277 14.9729L2.81811 18.5699C2.61041 18.7789 2.49563 19.0649 2.49563 19.3619C2.49563 19.6589 2.61041 19.9449 2.81811 20.1539L2.87277 20.2089C3.31004 20.6489 4.01513 20.6489 4.4524 20.2089L8.02706 16.6119C8.33861 16.2984 8.84693 16.2984 9.16395 16.6119C9.4755 16.9254 9.4755 17.4369 9.16395 17.7559L5.58929 21.3529C5.05911 21.8864 4.35948 22.1504 3.66532 22.1559" fill="white"/>
</g>
</g>
</g>
<defs>
<clipPath id="clip0_157_5468">
<rect width="22" height="22" fill="white" transform="translate(0.844727 0.15625)"/>
</clipPath>
</defs>
</svg>
